<?xml version="1.0" encoding="utf-8"?>
<!-- Generator: Adobe Illustrator 24.0.0, SVG Export Plug-In . SVG Version: 6.00 Build 0)  -->
<svg version="1.1" id="图层_1" xmlns="http://www.w3.org/2000/svg" xmlns:xlink="http://www.w3.org/1999/xlink" x="0px" y="0px"
	 viewBox="0 0 469.333 400.857" style="enable-background:new 0 0 469.333 400.857;" xml:space="preserve">
<style type="text/css">
	.st0{fill:#E32E10;}
	.st1{fill:#D72608;}
	.st2{fill:#141212;}
	.st3{fill:#FFFFFF;}
	.st4{fill:#F5CB42;}
	.st5{fill-rule:evenodd;clip-rule:evenodd;fill:#FFFFFF;}
	.st6{fill-rule:evenodd;clip-rule:evenodd;fill:#FF0000;}
	.st7{fill:#FF0000;}
	.st8{fill:#161313;}
</style>
<g>
	<path class="st5" d="M313.702,198.846c-0.579,3.229-2.797,5.232-6.381,5.488c0.414,2.255-0.122,4.324-1.064,5.531
		c-1.107,1.419-3.156,1.549-5.445,1.404c-4.227-0.269-8.446-1.058-12.082-1.787c-3.757-0.754-8.232-1.382-12.422-0.51
		c-3.269,0.68-6.132,1.919-10.04,2.085c-0.549,0.023-1.581-0.22-1.829,0.042c-1.722,1.817-3.298,3.699-5.105,5.36
		c-1.823,1.676-3.581,3.386-5.488,4.978c-11.341,9.465-24.644,17.212-41.096,21.697c-10.69,2.914-23.98,4.695-37.565,3.531
		c-12.679-1.086-23.788-4.082-33.523-8.296c-9.63-4.17-18.446-9.524-26.121-15.741c-1.91-1.547-3.701-3.261-5.531-4.935
		c-0.24-0.221-0.451-0.44-0.681-0.638c-0.247-0.213-0.558-0.302-0.893-0.425c-1.813-0.667-3.602-1.651-5.233-2.595
		c-4.378-2.534-8.446-5.68-11.827-9.062c-3.426-3.426-6.802-7.083-9.912-11.018c-4.682-5.923-8.658-12.227-10.678-20.718
		c-0.702-2.949-1.142-5.963-0.766-9.359c0.705-6.365,3.241-10.402,6.466-14.422c-1.248-12.385-0.138-24.944,2.34-35.14
		c2.517-10.356,6.139-19.455,10.678-27.61c9.198-16.522,21.714-29.548,37.267-39.352c2.207-5.047,3.903-11.391,7.7-15.188
		c0.406-0.406,1.462-1.458,2.042-1.361c1.509,0.251,1.935,2.817,2.255,4.297c0.433,2.004,0.852,3.75,1.106,5.445
		c0.328-0.335,0.816-0.502,1.234-0.681c6.949-2.975,14.567-5.473,22.973-7.019c4.367-0.804,9.271-1.622,14.294-1.702
		c2.564-0.041,5.177-0.24,7.785-0.213c2.532,0.027,5.076,0.172,7.573,0.425c19.343,1.966,34.814,7.983,47.732,16.251
		c0.972-4.388,1.769-8.826,2.978-13.146c0.25-0.893,0.849-3.571,2.042-3.488c1.086,0.074,2,1.244,2.68,2.042
		c2.195,2.57,3.495,6.042,4.637,9.53c0.8,2.442,1.375,4.968,1.914,7.53c0.564,2.673,1.171,5.626,0.766,8.679
		c16.069,15.267,28.914,34.393,33.864,61.091c0.822,4.432,1.303,9.211,1.574,14.252c0.271,5.04,0.215,10.356-0.34,15.315
		c1.976,2.808,4.607,7.57,3.063,12.55c-0.593,1.915-2.083,3.414-3.361,4.85c-0.966,1.086-1.953,2.16-3.106,3.063
		c-0.186,0.145-0.422,0.259-0.596,0.426c-0.125,0.12-0.237,0.337-0.408,0.397c-0.076-0.005-0.153-0.01-0.23-0.014
		c0.089,0.038,0.164,0.038,0.23,0.014c3.019,0.218,5.218,1.752,7.512,2.964c5.775,3.05,11.645,6.155,14.72,12.082
		c0.752,1.452,1.836,4.353,0.213,5.573C312.044,192.744,314.406,194.92,313.702,198.846z"/>
	<g>
		<path class="st6" d="M142.235,59.078c0.043,0,0.085,0,0.127,0c0.034,0.34-0.425,0.471-0.638,0.596
			c-1.841,1.08-4.087,2.084-6.424,2.68c-2.727,0.695-6.519,0.858-8.466-0.808c2.73,0.458,5.726,0.347,8.381-0.128
			C137.895,60.939,140.384,60.139,142.235,59.078z"/>
		<path class="st6" d="M238.678,59.631c4.171,2.001,8.531,4.576,15.103,4.041c-1.086,0.678-2.344,1.08-4.169,0.979
			c-2.169-0.12-4.107-0.985-5.956-1.914C241.755,61.781,239.926,60.829,238.678,59.631z"/>
		<path class="st6" d="M137.258,77.286c-4.204-0.212-8.285-0.983-12.507-0.425c-3.963,0.523-7.502,1.668-11.146,2.382
			C119.156,76.247,130.012,74.505,137.258,77.286z"/>
		<path class="st6" d="M235.573,139.611c-0.614-2.197-2.593-4.362-5.53-3.361c-0.062-0.109,0.186-0.323,0.34-0.468
			c0.565-0.534,1.449-1.105,2.68-0.978C235.119,135.014,235.949,137.208,235.573,139.611z"/>
		<path class="st6" d="M216.216,163.733c3.672-1.291,6.943-3.21,10.125-4.85c-0.105,0.428-0.532,0.679-0.851,0.936
			c-4.817,3.891-10.839,7.037-17.315,9.316c-7.005,2.466-15.009,4.213-24.207,4.212c-9.322-0.001-17.114-1.752-23.866-4.552
			c-6.707-2.781-12.315-6.829-15.953-12.465c-1.352,1.073-2.145,2.706-3.105,4.17c1.218-4.029,2.931-7.931,8.04-8.211
			c-1.271,0.715-2.494,1.477-3.531,2.425c4.065,6.418,10.648,10.415,18.421,13.315c7.289,2.72,18.075,4.002,27.993,2.51
			c1.559-6.711,4.521-12.505,5.36-20.122c0.436-3.958-0.253-8.806,1.276-11.486c1.558-2.73,5.056-3.862,8.849-4.042
			c7.834-0.37,12.334,3.125,12.848,10.083C220.862,152.573,218.136,158.339,216.216,163.733z M219.237,151.48
			c0.25-1.643,0.502-3.369,0.425-5.105c-0.304-6.926-4.358-10.562-11.912-10.21c-3.439,0.16-6.59,0.978-8.211,3.148
			c-1.403,1.878-1.27,4.863-1.404,8.041c-0.385,9.117-3.569,15.635-5.36,23.1c4.171-0.608,8.045-1.512,11.827-2.51
			c1.862-4.023,3.06-8.71,3.829-13.826c0,5.403-1.42,9.613-2.723,13.571c3.34-1.07,6.552-2.269,9.742-3.488
			C216.984,160.459,218.523,156.175,219.237,151.48z"/>
		<path class="st6" d="M156.019,138.42c-1.349,0.08-1.811-1.337-1.446-2.553C155.986,135.551,156.558,137.321,156.019,138.42z"/>
		<path class="st6" d="M232.552,137.824c0.588,0.749-0.073,2.911-1.064,2.723c-0.733-0.14-0.527-1.812,0.043-2.382
			C231.782,137.914,232.072,137.804,232.552,137.824z"/>
		<path class="st6" d="M286.283,177.346c0.036-0.008,0.04,0.016,0.043,0.043c1.214,3.298,1.408,8.128,0.596,11.912
			c-0.782,3.642-2.444,6.792-5.147,8.381C285.013,192.639,286.199,185.543,286.283,177.346z"/>
		<path class="st6" d="M264.374,184.195c3.246,0.904,6.324,2.014,8.296,4.339c0.951,1.121,1.672,2.499,2.425,3.914
			c0.746,1.402,1.488,3.016,1.276,4.978C273.213,192.175,270.166,186.812,264.374,184.195z"/>
		<path class="st6" d="M244.762,212.528c-0.694,0.738-1.511,1.354-2.297,2c-2.19-2.489-4.321-5.038-6.509-7.53
			c0.551-0.697,1.353-1.144,1.914-1.829C240.264,207.525,242.464,210.076,244.762,212.528z"/>
		<path class="st6" d="M229.489,219.165c0.633-0.671,1.57-1.039,2.297-1.617c0.36,0.335,0.487,0.902,0.936,1.149
			c1.025,0.06,1.476-0.439,2.17-0.936c0.422-0.302,1.082-0.69,1.149-1.149c0.093-0.641-0.58-1.161-0.936-1.617
			c-1.118-1.432-2.19-3.177-3.233-4.424c0.555-0.664,1.421-1.246,2.085-1.659c1.463,1.819,2.658,3.235,4.126,5.105
			c0.478,0.608,0.961,1.323,1.021,2.042c0.071,0.858-0.341,1.619-0.766,2.085c-0.573,0.627-1.571,1.149-2.468,1.787
			c-1.088,0.774-2.071,2.036-3.999,1.744C230.571,221.479,230.177,220.12,229.489,219.165z"/>
		<path class="st6" d="M141.214,212.103c-0.71,1.12-1.464,2.195-2.212,3.276c1.807,1.469,3.956,2.595,5.998,3.829
			c0.79-1.054,1.343-2.345,2.042-3.489c0.732,0.46,1.556,0.827,2.297,1.277c-1.492,3.061-3.131,5.973-4.595,9.061
			c-0.969-0.392-1.801-0.922-2.68-1.404c0.579-1.137,1.231-2.201,1.829-3.318c-2.104-1.286-4.242-2.537-6.254-3.914
			c-0.733,1.011-1.412,2.076-2.127,3.106c-0.96-0.458-1.667-1.169-2.553-1.702c2.015-2.749,4.039-5.491,6.041-8.253
			C139.757,211.065,140.452,211.617,141.214,212.103z"/>
		<path class="st6" d="M229.744,223.632c-1.382,0.944-2.93,1.721-4.467,2.51c-2.219-0.961-4.355-1.873-6.466-2.978
			c-0.653-0.342-1.313-0.917-2.127-0.893c0.682,2.268,1.782,4.486,2.723,6.637c-0.801,0.489-1.767,0.814-2.723,1.149
			c-1.229-3.111-2.425-6.254-3.616-9.402c1.323-0.549,2.661-1.083,3.957-1.659c2.082,1.088,4.197,2.196,6.424,3.191
			c0.708,0.316,1.497,0.816,2.34,0.681c-0.978-2.227-2.31-4.468-3.531-6.594c0.644-0.519,1.583-0.969,2.255-1.318
			C226.357,217.745,227.923,220.817,229.744,223.632z"/>
		<path class="st6" d="M159.124,221.207c0.478,4.003,1.211,7.751,2.127,11.316c-1.072-0.063-2.043-0.594-3.106-0.808
			c-0.109-0.77-0.284-1.474-0.425-2.212c-2.114-0.906-4.404-1.637-6.509-2.552c-0.345,0.186-0.641,0.362-0.978,0.638
			c-0.252,0.206-0.595,0.657-0.936,0.681c-0.34,0.024-1.171-0.484-1.489-0.638c-0.513-0.248-0.987-0.459-1.446-0.681
			c3.125-2.25,6.286-4.69,9.147-7.062C156.77,220.271,157.874,220.812,159.124,221.207z M152.871,225.674
			c1.462,0.565,2.884,1.172,4.424,1.659c-0.317-1.555-0.374-3.37-0.766-4.85C155.412,223.65,154.042,224.563,152.871,225.674z"/>
		<path class="st6" d="M214.684,230.779c-0.931,0.331-1.917,0.608-2.808,0.979c-0.685-0.45-1.141-1.128-1.829-1.574
			c-2.166,0.571-4.251,1.223-6.552,1.659c-0.339,0.653-0.466,1.519-0.723,2.255c-1.044,0.19-2.036,0.431-3.148,0.553
			c1.201-3.55,2.32-7.182,3.191-11.061c1.229-0.274,2.439-0.567,3.573-0.936c0.035,0.008,0.042,0.043,0.085,0.043
			c2.333,2.391,4.731,4.827,7.232,7.104C214.044,230.108,214.497,230.345,214.684,230.779z M204.049,229.886
			c1.512-0.375,3.06-0.712,4.467-1.191c-1.053-1.061-2.138-2.509-3.233-3.488c-0.022-0.02-0.026-0.061-0.085-0.043
			C204.876,226.799,204.422,228.302,204.049,229.886z"/>
		<path class="st6" d="M168.526,224.057c-0.654,3.317-1.422,6.52-2.085,9.827c-0.973-0.19-1.877-0.449-2.85-0.638
			c0.847-3.238,1.553-6.615,2.51-9.742C166.894,223.705,167.695,223.896,168.526,224.057z"/>
		<path class="st6" d="M196.264,224.823c0.39,1.604,0.564,3.341,0.808,5.063c0.241,1.7,0.532,3.398,0.766,5.063
			c-0.945,0.133-1.92,0.235-2.85,0.383c-0.203-1.216-0.279-2.557-0.468-3.786c-2.329,0.167-4.605,0.387-7.019,0.468
			c-0.027,1.332,0.068,2.541,0.085,3.829c-0.949,0.029-1.898,0.059-2.893,0.043c-0.03-3.463,0.046-6.817,0.043-10.253
			c0.851,0,1.702,0,2.553,0c0.047,1.329,0.064,2.687,0.127,3.999c2.398-0.042,4.629-0.25,6.849-0.468
			c-0.154-1.335-0.287-2.691-0.468-3.999C194.618,225.049,195.486,224.982,196.264,224.823z"/>
		<path class="st6" d="M181.884,228.865c-0.861-0.019-1.671-0.087-2.51-0.127c-0.039-1.284-1.132-1.156-2.638-1.319
			c-1.252-0.135-2.74-0.73-3.488-0.042c-0.376,0.345-0.461,1.225-0.085,1.701c0.506,0.64,2.916,0.663,3.957,0.766
			c1.771,0.175,3.904,0.132,4.637,1.149c0.823,1.141,0.591,3.833-0.638,4.552c-0.686,0.401-2.129,0.369-3.148,0.298
			c-1.161-0.081-2.097-0.246-3.105-0.383c-1.767-0.241-4.74-0.314-5.275-1.701c-0.248-0.642,0.049-1.223,0.085-2
			c0.885,0.151,1.771,0.299,2.638,0.468c0.079,0.108,0.066,0.486,0.213,0.723c0.455,0.735,1.828,0.605,3.191,0.766
			c0.575,0.068,1.066,0.155,1.787,0.17c0.637,0.013,1.556,0.088,1.787-0.17c0.401-0.447,0.012-1.345-0.17-1.787
			c-1.297-0.311-2.929-0.344-4.51-0.51c-2.032-0.215-4.278-0.296-4.467-2.297c-0.128-1.36,0.41-3.132,1.234-3.616
			c0.201-0.118,0.789-0.267,1.191-0.298c1.662-0.129,2.982,0.287,4.765,0.468C179.98,225.943,182.44,225.711,181.884,228.865z"/>
		<path class="st6" d="M140.065,39.211c0.328-0.335,0.816-0.502,1.234-0.681c6.948-2.975,14.567-5.473,22.973-7.019
			c4.366-0.804,9.271-1.622,14.294-1.702c2.564-0.041,5.177-0.24,7.785-0.213c2.532,0.027,5.075,0.172,7.573,0.425
			c19.343,1.966,34.814,7.983,47.732,16.251c0.972-4.388,1.769-8.826,2.978-13.146c0.25-0.892,0.849-3.571,2.042-3.488
			c1.085,0.075,1.999,1.245,2.68,2.042c2.195,2.57,3.495,6.042,4.637,9.529c0.8,2.442,1.374,4.968,1.914,7.53
			c0.564,2.673,1.171,5.626,0.766,8.679c16.069,15.267,28.913,34.393,33.864,61.091c0.822,4.433,1.303,9.211,1.574,14.252
			c0.272,5.04,0.215,10.357-0.34,15.315c1.975,2.808,4.607,7.57,3.063,12.55c-0.593,1.914-2.083,3.414-3.361,4.85
			c-0.966,1.086-1.952,2.159-3.106,3.063c-0.186,0.145-0.422,0.259-0.596,0.426c-0.174,0.167-0.321,0.519-0.638,0.383
			c3.139,0.154,5.39,1.736,7.743,2.978c5.775,3.05,11.645,6.155,14.72,12.082c0.753,1.452,1.836,4.352,0.213,5.573
			c2.426,1.427,4.788,3.604,4.084,7.53c-0.579,3.229-2.797,5.232-6.381,5.488c0.414,2.255-0.123,4.324-1.064,5.531
			c-1.107,1.419-3.156,1.549-5.446,1.404c-4.227-0.269-8.447-1.057-12.082-1.787c-3.757-0.754-8.232-1.382-12.422-0.51
			c-3.268,0.68-6.132,1.92-10.04,2.085c-0.548,0.023-1.581-0.22-1.829,0.042c-1.722,1.817-3.298,3.699-5.105,5.361
			c-1.823,1.676-3.58,3.385-5.488,4.977c-11.341,9.465-24.644,17.212-41.096,21.697c-10.689,2.914-23.98,4.694-37.565,3.531
			c-12.68-1.086-23.788-4.081-33.523-8.296c-9.631-4.17-18.446-9.524-26.121-15.741c-1.91-1.547-3.701-3.26-5.53-4.935
			c-0.241-0.22-0.451-0.44-0.681-0.638c-0.247-0.213-0.558-0.302-0.893-0.425c-1.813-0.666-3.602-1.651-5.232-2.595
			c-4.378-2.534-8.446-5.68-11.827-9.061c-3.426-3.426-6.802-7.083-9.912-11.019c-4.683-5.923-8.658-12.228-10.678-20.718
			c-0.702-2.95-1.141-5.964-0.766-9.359c0.704-6.365,3.241-10.401,6.466-14.422c-1.247-12.385-0.138-24.944,2.34-35.14
			c2.517-10.356,6.138-19.455,10.678-27.61c9.198-16.523,21.715-29.548,37.267-39.352c2.207-5.046,3.903-11.39,7.7-15.188
			c0.406-0.406,1.462-1.458,2.042-1.361c1.509,0.251,1.935,2.817,2.255,4.297C139.393,35.769,139.811,37.515,140.065,39.211z
			 M162.23,53.335c4.326,0.19,6.882-1.899,9.913-3.573c5.85-3.233,13.531-4.462,22.335-4.807c-0.245-0.768-0.885-1.297-1.447-1.829
			c-0.56-0.531-1.075-1.115-1.702-1.574c-1.271-0.932-2.818-1.508-4.382-2.17c7.391-1.474,13.023,1.748,17.4,4.382
			c2.376,1.43,4.735,2.735,6.636,4.637c1.88,1.88,3.014,4.455,4.127,7.147c0.46-0.239,0.861-0.532,1.447-0.638
			c1.572-0.283,3.32,0.196,4.637,0.723c1.324,0.53,2.57,1.286,3.191,2.382c1.089,1.923,0.171,5.094,0.596,7.7
			c0.983,0.276,1.971,0.513,3.148,0.511c1.932-0.004,2.979-0.752,4.169-1.489c4.34-2.686,6.47-7.739,7.998-13.06
			c-12.66-8.136-27.714-14.257-46.839-16.039c-10.059-0.937-20.371-0.147-28.929,1.574c-8.445,1.698-16.07,4.293-22.973,7.445
			c-0.166,0.076-0.563,0.376-0.596,0.085c0.66,4.498,1.387,8.856,2.808,12.507c1.345,3.458,3.864,5.744,6.807,7.53
			c0.156,0.095,0.378,0.309,0.596,0.213c0.167-0.438-0.166-1.124,0.128-1.446c0.808-0.05,0.798,0.952,1.404,0.936
			c0.226-0.006,0.663-0.273,0.936-0.383c0.991-0.4,2.026-0.807,2.935-1.149c-2.105-3.766-3.444-8.524-5.062-12.635
			C155.03,51.5,158.012,53.15,162.23,53.335z M147.595,63.205c-1.165-0.974-2.199-1.906-3.021-3.276
			c-1.498-2.496-2.428-5.802-3.148-9.402c-0.651-3.252-1.176-7.021-1.787-10.763c-0.431-2.641-1.014-5.29-1.702-7.743
			c-0.193-0.688-0.656-2.356-1.404-1.957c-1.887,1.008-3.317,3.189-4.382,5.19c-1.103,2.073-2.151,4.403-3.021,6.594
			c-0.919,2.316-1.867,4.572-2.638,6.977c-0.788,2.461-1.236,5.242-1.021,8.509c0.19,2.884,0.823,5.613,1.872,7.7
			c1.097,2.181,2.777,3.563,4.552,5.062c1.703,1.438,3.454,2.803,5.701,3.914c1.521,0.752,3.321,1.434,5.233,1.957
			c0.33,0.09,1.651,0.528,1.957,0.468c0.218-0.043,0.629-0.645,0.893-0.936c1.814-1.997,3.44-3.695,5.36-5.616
			c0.25-0.249,0.823-0.728,0.851-0.978c0.018-0.161-0.162-0.469-0.212-0.723c-0.164-0.829-0.19-1.669-0.383-2.425
			C149.722,65.114,148.753,64.174,147.595,63.205z M244.677,34.957c-0.406,1.731-0.843,3.581-1.234,5.275
			c-0.805,3.493-1.564,7.237-2.468,10.55c-0.932,3.416-1.978,6.749-3.531,9.487c-1.202,2.119-2.902,3.535-4.935,4.85
			c-0.673,0.435-1.326,0.969-2.042,1.234c-1.494,0.553-3.484,0.095-5.275,0.127c1.081,2.466,2.815,4.193,4.807,5.871
			c1.392,1.172,2.915,2.421,4.382,3.616c0.446,0.363,1.142,0.948,1.659,1.021c0.653,0.092,1.477-0.23,2.127-0.383
			c0.668-0.157,1.337-0.323,1.957-0.468c3.956-0.929,7.074-2.597,9.785-4.637c0.953-0.718,1.774-1.453,2.468-2.34
			c2.058-2.632,3.289-6.545,3.829-10.593c0.39-2.924,0.034-5.813-0.553-8.636c-0.563-2.708-1.155-5.378-1.872-7.743
			c-1.515-4.997-3.215-9.636-7.147-12.082c-0.028,0-0.057,0-0.085,0C245.497,31.301,245.096,33.167,244.677,34.957z M192.52,32.277
			c-2.697-0.225-6.237-0.429-9.062-0.298c-4.321,0.201-8.409,0.349-12.337,0.808c-11.659,1.362-21.588,4.753-30.673,8.679
			c0.181,1.052,0.305,2.162,0.51,3.191c0.036-0.273,0.366-0.338,0.553-0.425c6.971-3.243,14.591-5.708,23.015-7.402
			c8.634-1.737,18.949-2.475,28.971-1.617c19.145,1.639,34.147,8.027,46.839,16.038c-0.035,0.101,0.06,0.196,0.042,0.043
			c0.254-0.909,0.49-1.835,0.723-2.765C228.138,40.381,212.364,33.929,192.52,32.277z M91.439,87.114
			c-4.188,7.723-7.614,16.263-9.997,25.866c-2.374,9.561-3.562,20.671-2.595,32.502c0.508-0.36,0.883-0.841,1.361-1.319
			c0.303-0.303,1.276-0.969,1.361-1.404c0.1-0.508-0.066-1.228-0.085-1.829c-0.119-3.789-0.026-7.706,0.255-11.146
			c0.049-0.595,0.221-1.202,0.17-1.744c-0.043-0.458-0.269-0.944-0.383-1.404c-0.859-3.454-0.643-7.892,0.17-11.146
			c0.854-3.417,2.115-6.232,3.999-8.508c0.269-0.325,0.605-0.658,0.766-1.021c0.602-1.363,0.986-2.815,1.489-4.169
			c0.513-1.381,1.08-2.723,1.659-4.041c7.856-17.89,19.037-31.961,33.864-42.925c0.423-0.313,1.476-0.92,1.617-1.234
			c0.098-0.219,0.077-0.663,0.128-1.021c0.14-0.986,0.433-2.374,0.553-3.021C111.584,59.134,99.864,71.578,91.439,87.114z
			 M87.398,105.152c1.644-1.375,3.32-2.548,5.318-3.574c2.073-1.064,4.267-2.26,6.637-2.85c2.653-0.662,5.45,0.309,7.445,1.489
			c2.045,1.21,3.28,2.976,4.509,4.977c0.193,0.313,0.266,0.353,0.043,0c3.423-7.641,7.954-14.443,13.06-20.335
			c0.151-0.174,0.488-0.385,0.383-0.553c-4.808-1.856-10.141-3.189-15.741-4.254c0.63-1.217,1.861-1.825,3.021-2.553
			c5.456-3.421,12.94-4.829,21.058-5.445c-2.029-2.16-4.672-3.9-6.211-6.764c-1.53-2.847-2.093-6.639-1.872-11.061
			c-17.15,12.334-30.325,29.006-37.905,51.051C87.258,105.375,87.354,105.188,87.398,105.152z M288.283,118.297
			c-4.852-25.136-16.598-43.433-31.864-57.985c-0.043,0-0.051-0.034-0.085-0.043c-0.153,0.346-0.225,0.881-0.383,1.532
			c-0.121,0.499-0.385,1.111-0.34,1.361c0.037,0.208,0.631,0.646,0.936,0.936c4.528,4.297,8.486,9.05,12.082,14.167
			c0.272,0.387,0.533,0.847,0.808,1.106c0.642,0.603,1.759,0.924,1.872,1.914c-0.059,0.182-0.394,0.088-0.51,0.213
			c10.351,16.106,18.117,36.368,16.549,63.601c0.713,0.109,1.347,0.385,1.829,0.681c0.177,0.108,0.363,0.345,0.553,0.255
			C290.606,136.229,289.881,126.577,288.283,118.297z M268.415,78.733c0.048-0.004,0.066,0.062,0.085,0
			c-1.939-2.705-4.045-5.364-6.254-7.913c-2.046-2.361-4.225-4.608-6.381-6.764c-0.098-0.098-0.208-0.381-0.425-0.298
			c-1.149,4.523-3.812,7.533-7.445,9.572C255.568,74.366,263.126,75.414,268.415,78.733z M157.465,64.396
			c-1.01,0.422-2.093,0.772-3.063,1.234c1.398,0.29,2.689-0.182,3.403-0.851C157.665,64.678,157.64,64.462,157.465,64.396z
			 M158.231,65.332c-0.722,0.654-1.712,1.039-2.382,1.744c1.395,0.729,3.536,1.694,5.531,1.021
			C160.282,67.223,159.353,66.181,158.231,65.332z M154.7,66.268c0.176,0.079,0.275,0.236,0.511,0.255
			c0.172-0.169,0.46-0.221,0.553-0.468C155.427,66.144,154.891,66.034,154.7,66.268z M147,75.244
			c-10.544,12.601-17.478,29.959-15.783,53.773c6.663-2.285,13.979-3.917,21.867-4.977c-1.648-8.448-0.027-17.518,3.063-23.1
			c0.449-0.811,1.284-1.592,1.532-2.425c0.412-1.385-0.668-2.647-0.511-4.042c0.591,0.742,0.934,1.731,1.489,2.51
			c1.553-0.966-0.016-3.239-0.042-4.595c0.395,0.39,0.673,0.799,1.064,1.319c0.131,0.174,0.882,1.329,1.106,1.319
			c0.031-0.001,0.28-0.322,0.383-0.425c2.021-2.021,6.132-3.048,9.785-1.957c3.277,0.979,5.509,3.583,7.105,6.339
			c3.088,5.334,4.57,14.376,3.021,22.633c5.972-0.142,12.383-0.223,18.336,0c0.026-8.195,1.971-14.802,5.445-19.697
			c1.708-2.406,3.822-4.526,6.807-5.786c1.427-0.602,3.231-1.112,5.233-1.064c1.927,0.046,3.451,0.646,4.722,1.574
			c0.346-0.528,0.697-1.236,1.106-1.701c0.128-0.146,0.387-0.419,0.468-0.34c-0.016,1.567-0.486,3.859,0.851,4.297
			c0.536-0.683,0.901-1.765,1.489-2.255c0.082,1.205-0.821,2.12-0.553,3.531c0.062,0.329,0.437,0.769,0.681,1.149
			c3.461,5.39,4.5,15.684,2.382,23.441c6.241,1.233,11.909,3.038,17.102,5.318c1.017-9.445,0.609-20.425-0.936-29.014
			c-1.362-7.575-3.815-14.312-7.402-19.782c-0.442-0.674-1.192-1.926-1.829-2.085c-0.735-0.183-2.055,0.3-2.893,0.511
			c-0.947,0.239-1.97,0.526-2.808,0.723c-1.871,0.439-3.705,1.118-5.828,1.191c-2.371,0.082-4.17-0.64-5.701-1.319
			c-1.624-0.72-2.493-2.184-4.722-2.34c0.306,2.956,2.132,4.618,2.68,7.19c-4.21-1.066-7.88-2.67-9.997-5.828
			c-3.671,2.743-5.709,7.367-11.231,8.381c-2.882,0.529-6.133,0.157-9.104-0.17c-2.946-0.325-6.058-0.559-7.7-2.042
			c1.893,0.059,3.534-0.429,5.105-1.021c2.181-0.822,4.718-1.491,4.85-4.254c-1.599,0.495-2.841,1.597-4.424,2.297
			c-1.558,0.688-3.351,1.157-5.275,1.531c-1.948,0.38-4.069,0.716-6.126,0.681c-2.133-0.037-3.959-0.478-5.573-1.276
			c-2.942-1.455-5.668-3.417-8.126-5.488c-2.487-2.095-4.73-4.56-5.913-7.743c-0.002-0.026-0.006-0.05-0.043-0.043
			C150.244,71.53,148.591,73.343,147,75.244z M136.237,73.883c-1.178-0.642-2.026-1.598-3.659-1.362
			c-4.517,0.654-9.019,0.867-12.933,2.042c-3.577,1.074-7.019,2.863-9.317,5.19c-0.04,0.04-0.185,0.068-0.128,0.17
			c4.028,0.665,7.524,1.282,11.103,2.425c1.69,0.54,3.233,1.309,4.807,1.957c1.602,0.659,3.323,1.336,5.318,1.446
			c3.331,0.185,5.314-1.239,8.381-1.532c1.391-2.089,2.677-4.254,3.999-6.339c0.186-0.293,0.534-0.546,0.553-0.936
			C141.645,76.062,138.618,75.18,136.237,73.883z M260.8,76.095c-2.879-0.891-6.309-1.316-9.572-1.744
			c-1.13-0.148-2.245-0.409-3.318-0.468c-0.314-0.017-0.662,0.005-0.808,0.043c-0.767,0.197-1.538,0.784-2.34,1.149
			c-0.795,0.361-1.641,0.703-2.51,0.978c-1.845,0.584-3.764,0.785-5.19,1.744c0.246,0.236,0.729,0.236,0.893,0.553
			c-0.473,0.321-1.097,0.491-1.829,0.553c1.517,2.624,3.514,5.136,4.765,8.168c1.991,1.326,4.986,1.858,7.87,1.404
			c2.708-0.426,5.113-1.474,7.232-2.382c4.465-1.915,9.271-3.734,14.507-4.722C268.185,79.032,264.725,77.309,260.8,76.095z
			 M258.801,85.54c-1.757,0.761-3.487,1.603-5.318,2.425c-1.864,0.837-3.957,1.339-6.296,1.489c0.303-0.061,0.381,0.08,0.511,0.213
			c0.424,0.436,0.809,1.144,1.234,1.744c1.25,1.767,2.505,3.693,3.574,5.488c6.113,10.276,10.028,21.996,11.103,37.097
			c0.272,3.823,0.077,7.693-0.298,11.486c-0.67,6.786-2.112,13.037-4.084,18.506c-0.126,0.349-0.224,0.852-0.553,0.978
			c3.923-0.33,7.822,0.829,11.231-0.17c3.016-0.884,5.368-2.821,6.764-5.488c1.452-2.775,1.197-6.838,2.595-9.657
			c1.375-2.771,3.521-4.698,7.658-4.594c1.039-13.424-0.848-25.732-3.829-35.906c-2.846-9.714-6.809-18.507-11.699-26.121
			c-0.312-0.486-0.734-0.921-0.893-1.489C266.17,82.657,262.424,83.971,258.801,85.54z M113.476,110.087
			c3.801-9.189,8.755-17.514,15.103-24.121c0.115-0.12,0.247-0.215,0.213-0.255c-0.735-0.201-1.405-0.467-2.127-0.681
			c-5.79,6.165-10.604,13.673-14.252,22.122c-0.139-0.263-0.401-0.841-0.468-0.893c1.162,2.134,1.864,4.516,1.957,7.488
			c0.09,2.872-0.553,5.993-0.681,8.806c-0.287,6.325,2.643,9.94,6.126,12.72c3.152-2.35,6.734-4.27,10.721-5.786
			c-1.106-18.456,3.162-33.041,9.274-44.712c-3.158,0.434-6.407,2.156-10.04,1.064c-5.734,6.022-10.566,13.251-14.167,21.399
			c-0.455,1.029-0.881,2.151-1.319,3.148c-0.023,0.053-0.049,0.321-0.213,0.255C113.57,110.447,113.544,110.246,113.476,110.087z
			 M259.141,126.21c-2.562-15.818-9.033-27.925-17.442-37.82c0.107-0.018-0.071-0.092-0.128-0.085
			c-0.161-0.074-0.029,0.181-0.043,0.128c0.067,0.274,0.234,0.544,0.34,0.808c4.297,10.652,5.317,26.557,3.957,41.139
			c5.836,3.211,11.302,6.793,13.954,13.188C260.228,137.471,259.995,131.483,259.141,126.21z M242.294,88.645
			c0.321,0.239,0.85,0.86,1.191,1.276c5.267,6.423,9.498,13.775,12.507,22.25c3.058,8.611,4.96,18.547,4.254,30.205
			c-0.044,0.728-0.239,1.502-0.17,2.17c0.047,0.451,0.312,0.957,0.425,1.489c0.34,1.59,0.45,3.479,0.468,5.36
			c0.992-5.771,1.447-12.285,0.979-18.591c-0.453-6.097-1.494-12.048-2.936-17.102c-1.457-5.109-3.566-9.794-5.786-14.209
			c-2.083-4.142-4.605-7.993-7.275-11.486c-0.126-0.165-0.645-0.497-0.298-0.638C244.372,89.347,243.096,88.865,242.294,88.645z
			 M246.464,89.411c-0.199,0.028-0.51-0.056-0.638,0.043C246.025,89.426,246.335,89.509,246.464,89.411z M178.056,100.77
			c-1.938-3.855-5.142-8.248-11.231-7.828c-3.256,0.225-5.74,2.071-7.53,4.042c-1.844,2.031-3.192,4.47-4.254,7.147
			c-2.124,5.353-3.065,13.249-1.574,19.825c2.495-0.327,4.948-0.696,7.573-0.893c-0.798-5.346,0.128-11.29,2.51-14.252
			c0.023,3.535,4.697,3.861,6.169,1.447c1.513-2.483-0.754-5.393-3.446-4.935c1.238-1.369,3.12-2.129,5.531-1.914
			c2.127,0.19,4.071,1.083,5.403,2.127c2.864,2.246,3.466,6.617,3.956,11.103C181.499,110.146,180.197,105.03,178.056,100.77z
			 M220.47,104.641c4.532,0.008,6.483,3.539,7.615,7.062c-0.669-4.786-2.257-9.382-5.063-12.422
			c-1.391-1.508-3.129-2.854-5.403-3.403c-2.48-0.599-5.248,0.006-7.232,1.106c-3.652,2.025-6.094,5.816-7.87,9.785
			c-1.85,4.133-2.806,9.022-2.85,14.847c2.972,0.134,6.162,0.276,8.891,0.511c-0.149-4.505,0.745-8.329,2.51-11.061
			c1.737,3.003,6.829,0.617,6.339-2.723c-0.167-1.136-1.115-1.602-2.042-2.042C216.864,105.496,218.246,104.637,220.47,104.641z
			 M143.383,192.832c0.15-0.17,0.313-0.406,0.425-0.596c0.552-0.926,0.953-2.012,1.404-3.063c1.32-3.077,2.322-7.127,1.532-11.401
			c-0.451-2.442-1.463-4.534-2.552-6.466c-0.571-1.012-1.12-1.949-1.787-2.723c-0.684-0.793-1.575-1.376-2.51-1.999
			c-7.237-4.826-8.484-15.363-13.188-22.888c-1.229-1.966-2.541-3.37-4.467-4.552c-1.802-1.106-3.714-2.188-5.488-3.531
			c-1.68-1.271-3.075-2.826-3.999-5.02c-0.884-2.098-1.659-4.519-1.659-7.36c0-1.441,0.354-2.508,0.766-3.744
			c0.402-1.205,0.451-2.628,0.383-4.126c-0.127-2.798-0.619-5.246-1.489-7.53c-0.804-2.113-1.917-4.089-3.616-5.403
			c-1.657-1.282-4.237-2.327-7.104-2c-4.339,0.496-7.664,2.64-10.38,5.02c-1.434,1.256-2.596,2.581-3.531,4.169
			c-0.943,1.601-1.723,3.416-2.467,5.275c-0.784,1.959-1.319,3.953-1.319,6.381c0,2.329,0.498,4.568,1.106,6.594
			c1.197,3.985,2.789,7.415,4.722,10.72c5.659-2.418,15.564-3.263,22.037-1.063c3.112,1.058,6.01,2.603,8.466,4.382
			c2.51,1.818,4.306,4.425,4.509,8.338c3.061,1.218,5.677,3.001,7.658,5.445c0.993,1.226,1.676,2.628,2.042,4.51
			c0.34,1.748,0.524,3.976,0.128,6.041c3.311-0.964,5.186,2.27,6.339,4.169c2.864,4.719,4.802,11.128,4.084,18.761
			c-0.131,1.388-0.629,2.681-0.553,3.999C143.052,193.204,143.245,192.988,143.383,192.832z M171.887,197.851
			c9.969,0.827,20.894,0.579,30.375-0.553c17.749-2.119,32.403-7.55,42.883-17.017c0.717-0.648,1.656-1.369,2-2
			c0.404-0.741,0.376-1.914,0.596-2.637c1.187-3.915,3.826-6.461,6.722-8.594c0.57-0.42,1.303-0.762,1.574-1.361
			c1.528-3.375,2.969-7.045,3.786-10.976c0.943-4.534,0.221-9.146-1.532-12.422c-3.397-6.348-9.716-10.088-16.762-12.848
			c-6.935-2.716-15.208-4.603-23.909-5.701c-9.418-1.188-20.075-1.855-30.673-1.489c-5.799,0.2-11.734,0.379-17.4,0.766
			c-6.439,0.44-12.675,1.15-18.676,2.085c-11.948,1.86-22.795,4.511-30.716,10.763c5.405,2.124,7.962,6.695,10.721,11.614
			c2.702,4.819,3.622,11.19,7.19,15.188c1.787,2.002,4.299,3.073,6.169,5.02c1.828,1.903,2.955,4.435,3.786,7.403
			c0.839,2.995,1.104,6.756,0.298,9.87c-0.759,2.932-2.427,5.044-3.318,7.871C153.071,195.465,162.022,197.033,171.887,197.851z
			 M81.91,142.547c1.41-1.015,2.943-2.276,4.68-3.106c-1.623-3.269-3.111-6.673-4.382-10.295
			C81.888,133.403,81.721,138.034,81.91,142.547z M117.73,144.12c-4.089-3.724-10.363-6.288-18.421-5.913
			c-13.688,0.637-20.062,7.952-25.057,17.315c-0.822,1.541-1.574,3.197-1.957,5.105c-0.399,1.99-0.504,4.25-0.298,6.637
			c0.363,4.203,1.422,7.945,2.935,11.189c1.494,3.2,3.224,6.209,5.063,9.104c5.621,8.853,12.974,15.245,21.016,21.399
			c2.634,2.015,5.401,4.214,9.019,5.148c4.26,1.1,8.495-0.282,11.699-1.574c3.534-1.425,6.094-3.291,8.721-5.445
			c5.061-4.15,9.617-9.404,11.061-17.23c0.376-2.036,0.463-4.506,0.085-6.466c-0.365-1.892-1.049-3.729-1.702-5.361
			c-0.978-2.444-2.177-4.782-3.616-6.977c-0.391-0.597-1.169-1.745-1.872-1.702c-0.77,0.048-1.343,1.739-1.702,2.467
			c-0.478,0.973-1.054,2.004-1.447,2.723c-3.01,5.518-6.132,10.582-12.805,12.337c5.047-4.582,9.625-10.176,12.337-17.23
			c0.577-1.499,1.042-3.158,0.979-4.977c-0.061-1.777-0.65-3.338-1.276-4.68c-1.833-3.928-4.826-7.362-9.359-8.466
			c-3.284-0.8-7.255-0.075-10.125,0.978c-2.824,1.036-5.458,2.487-7.785,4.084c-2.046,1.404-3.994,3.069-5.573,4.85
			c-0.207,0.234-0.379,0.594-0.723,0.681c2.209-3.886,5.557-6.95,9.232-9.529c3.472-2.437,8.584-4.703,14.592-3.446
			C120.545,146.902,119.121,145.387,117.73,144.12z M284.922,169.178c1.322-0.594,2.493-1.383,3.616-2.255
			c2.025-1.573,4.321-3.863,5.233-6.466c1.154-3.296-0.183-7.143-1.361-9.487c-1.294-2.575-3.186-4.984-6.977-4.722
			c-4.349,0.3-5.7,4.303-6.339,8.211c-0.225,1.381-0.411,2.746-0.893,3.999c-1.782,4.627-5.343,7.714-11.954,7.53
			c-1.622-0.045-3.118-0.217-4.637-0.128c-4.673,0.275-7.543,2.066-9.955,4.637c-1.553,1.656-2.635,3.829-3.361,6.381
			c-0.362,1.272-0.663,2.792-0.34,4.254c0.126,0.573,0.375,1.2,0.595,1.829c0.186,0.531,0.581,1.334,0.51,1.957
			c-0.03,0.27-0.328,0.594-0.51,0.851c-0.233,0.328-0.391,0.649-0.51,0.893c-0.938,1.911-0.72,4.846-0.255,7.189
			c0.609,3.07,1.531,5.883,3.191,7.913c1.675,2.048,3.921,3.456,6.424,4.637c2.55,1.203,5.304,2.187,8.806,2.297
			c3.637,0.114,6.318-0.999,9.359-1.702c2.815-0.651,6.544-1.036,10.167-0.595c4.687,0.569,8.899,2.241,13.869,2.723
			c2.295,0.222,4.861,0.205,5.999-1.021c0.864-0.931,1.67-3.131,1.021-4.765c-0.611-1.538-3.056-2.588-4.595-3.361
			c-3.36-1.689-7.217-2.88-10.891-4.169c-1.851-0.65-3.731-1.192-5.19-2.255c4.486,0.674,8.127,1.677,11.997,2.851
			c2.982,0.904,5.134,2.148,7.147,3.956c0.658,0.592,1.366,1.721,2.17,1.872c1.891,0.356,3.656-0.836,4.467-1.915
			c0.896-1.192,1.664-3.028,1.361-5.02c-0.366-2.407-2.832-4.033-4.722-5.233c-5.583-3.545-12.187-6.57-20.293-7.359
			c8.271,0.042,15.021,1.475,19.57,5.105c0.651,0.52,1.158,1.312,2.084,1.446c0.275-3.139-1.431-5.518-2.893-7.19
			c-1.584-1.811-3.705-3.109-5.743-4.509c-1.992-1.369-4.093-2.529-6.509-3.744c-1.03-0.518-2.19-1.159-3.318-1.787
			c-1.083-0.603-2.298-1.428-3.531-1.617c-1.559-0.239-2.244,0.859-3.829,0.936c-1.353,0.066-2.259-0.27-3.361-0.723
			C281.989,169.872,283.566,169.787,284.922,169.178z M257.014,165.434c0.006-0.05,0.076-0.096,0-0.128
			c0.006,0.106-0.067,0.132-0.085,0.213c0.229-0.097,0.485-0.167,0.681-0.298C257.384,165.265,257.23,165.381,257.014,165.434z
			 M247.102,179.643c-0.002-0.026-0.006-0.05-0.042-0.042c-0.001,0.056-0.075,0.039-0.085,0.085
			c-10.819,10.197-26.365,16.139-45.222,18.421c-9.503,1.15-20.437,1.319-30.248,0.468c-9.812-0.852-18.852-2.433-26.717-5.148
			c-0.672,0.415-1.647,1.116-2.51,0.596c-0.735,1.733-1.6,3.335-2.51,4.892c9.42,6.654,20.502,11.919,34.672,13.826
			c2.929,0.394,5.963,0.514,9.062,0.638c6.273,0.251,12.237-0.622,17.527-1.829c15.659-3.573,27.72-11.256,37.352-20.888
			c3.156-3.156,5.905-6.662,8.466-10.338c0.045-0.064,0.137-0.242,0.255-0.213c0,0.085,0,0.17,0,0.255
			C247.211,180.481,247.095,179.839,247.102,179.643z M242.933,186.237c-4.415,5.37-9.381,10.029-15.145,13.954
			c-11.606,7.902-25.455,13.615-44.584,13.614c-6.098,0-12.046-0.928-17.187-2.212c-10.353-2.587-18.928-6.966-26.461-12.38
			c-0.267,0.598-0.679,1.051-0.978,1.616c9.429,6.676,20.654,12.105,34.842,13.996c8.836,1.178,18.875,0.876,26.929-0.893
			c5.252-1.154,10.166-2.775,14.762-4.765c13.639-5.905,24.357-14.991,32.46-26.121c-0.232-0.732-0.293-1.636-0.425-2.467
			C245.92,182.525,244.443,184.4,242.933,186.237z M247.059,186.28c-5.443,7.064-11.797,12.898-19.187,17.825
			c-7.924,5.284-17.27,9.343-27.95,11.486c-2.727,0.547-5.584,0.984-8.594,1.234c-3.082,0.255-6.332,0.532-9.487,0.383
			c-18.75-0.887-32.74-6.793-44.201-14.975c-4.926,6.234-10.999,11.321-20.037,13.443c8.66,7.734,19.112,13.812,31.226,18.378
			c11.775,4.438,26.326,7.454,42.968,6.211c15.27-1.14,27.883-5.147,38.969-10.721c5.494-2.762,10.618-5.963,15.358-9.487
			c4.59-3.413,8.937-7.226,12.72-11.359c0.086-0.094,0.284-0.27,0.213-0.426c-4.332-1.904-8.491-4.08-10.423-8.466
			c-0.493-1.118-0.816-2.305-1.149-3.574c-0.613-2.335-1.685-5.316-0.851-7.998c0.174-0.558,0.444-1.082,0.723-1.616
			c0.277-0.532,0.74-1.284,0.766-1.829c-0.002-0.026-0.006-0.05-0.043-0.043C247.894,185.2,247.471,185.745,247.059,186.28z
			 M256.419,211.763c-1.046,1.046-2.136,2.056-3.233,3.02c-8.899,7.815-19.067,14.328-30.971,18.974
			c-3.002,1.171-6.1,2.229-9.359,3.148c-6.394,1.803-13.667,3.385-21.229,3.786c-16.873,0.896-31.31-1.744-43.266-6.296
			c-11.127-4.236-21.224-10.135-29.652-17.187c-0.385-0.322-1.326-1.361-1.744-1.404c-0.181-0.019-0.538,0.127-0.808,0.17
			c-0.859,0.136-1.781,0.201-2.723,0.213c-0.08,0.094,0.19,0.244,0.298,0.34c4.528,4.014,9.316,7.647,14.55,10.933
			c5.369,3.371,11.236,6.383,17.527,8.807c9.307,3.585,20.145,6.478,32.417,7.062c4.149,0.197,8.468,0.313,12.848,0
			c16.178-1.158,29.609-5.477,41.309-11.359c11.441-5.751,21.135-13.559,29.525-22.292c0.102-0.107,0.299-0.241,0.255-0.426
			c-0.883-0.223-1.722-0.491-2.552-0.766C258.617,209.589,257.518,210.663,256.419,211.763z"/>
		<path class="st6" d="M128.834,45.805c2.317,1.42,7.706,1.928,10.636,0.553C137.387,48.562,130.304,48.932,128.834,45.805z"/>
		<path class="st6" d="M253.653,47.379c-1.273,3.326-8.913,2.357-10.55,0.17C245.766,48.886,251.244,49.087,253.653,47.379z"/>
		<path class="st6" d="M266.374,79.924c-4.466-0.278-8.975-1.228-13.784-1.361c-4.936-0.137-9.34,0.99-13.869,1.361
			c-0.048-0.008-0.024-0.043,0-0.043C246.073,76.883,258.928,77.328,266.374,79.924z"/>
		<path class="st6" d="M160.06,89.454c0.747-1.06,1.885-1.845,3.191-2.425c1.356-0.602,2.908-0.958,4.85-0.851
			c4.224,0.234,6.75,3.267,7.785,6.381c-1.373-2.367-3.584-4.487-6.679-5.233C165.612,86.46,162.047,87.613,160.06,89.454z"/>
		<path class="st6" d="M204.517,94.856c1.439-2.365,4.19-4.203,7.615-5.062c3.518-0.882,8.436-0.804,10.295,1.574
			c-0.019,0.062-0.037-0.004-0.085,0c-2.486-1.54-6.946-1.508-10.168-0.766C208.995,91.334,206.203,92.77,204.517,94.856z"/>
		<path class="st6" d="M151.807,137.739c-0.646-2.483,0.043-5.233,2.68-4.977c1.141,0.11,1.904,0.71,2.723,1.234
			C154.198,133.55,152.092,135.039,151.807,137.739z"/>
	</g>
</g>
<g>
	<path class="st3" d="M369.65,305.577h4.052l4.118,6.003l1.625,2.782h0.111c-0.223-1.332-0.534-3.137-0.534-4.638v-4.147h3.784
		v12.545h-4.052l-4.096-6.054l-1.625-2.748h-0.111c0.178,1.399,0.512,3.119,0.512,4.637v4.165h-3.784V305.577z"/>
	<path class="st3" d="M391.112,305.577h3.984v12.545h-3.984V305.577z"/>
	<path class="st3" d="M403.266,312.221v-6.644h3.963v6.964c0,2.377,0.936,3.221,2.761,3.221c1.804,0,2.805-0.844,2.805-3.221v-6.964
		h3.829v6.644c0,4.231-2.226,6.137-6.634,6.137C405.559,318.357,403.266,316.452,403.266,312.221z"/>
	<path class="st3" d="M369.65,330.87h4.296l2.627,5.412c0.334,0.726,0.602,1.519,0.913,2.294h0.111
		c0.334-0.775,0.602-1.568,0.913-2.294l2.538-5.412h4.318v12.545h-3.629v-4.3c0-1.247,0.312-3.119,0.513-4.351h-0.09l-1.38,3.002
		l-2.227,4.586h-2.182l-2.248-4.586l-1.336-3.002h-0.089c0.2,1.231,0.512,3.104,0.512,4.351v4.3h-3.562V330.87z"/>
	<path class="st3" d="M393.627,330.87h3.984v12.545h-3.984V330.87z"/>
	<path class="st3" d="M368.892,362.504c0-4.182,3.719-6.575,8.148-6.575c2.427,0,4.163,0.775,5.299,1.635l-2.115,1.923
		c-0.802-0.557-1.67-0.979-3.05-0.979c-2.449,0-4.208,1.45-4.208,3.896c0,2.495,1.47,3.945,4.542,3.945
		c0.601,0,1.225-0.118,1.58-0.32v-2.023h-2.627v-2.462h6.167v5.868c-1.157,0.843-3.206,1.534-5.521,1.534
		C372.499,368.945,368.892,366.753,368.892,362.504z"/>
	<path class="st3" d="M390.331,362.808v-6.644h3.963v6.964c0,2.378,0.936,3.221,2.761,3.221c1.804,0,2.805-0.843,2.805-3.221v-6.964
		h3.829v6.644c0,4.232-2.226,6.138-6.634,6.138C392.624,368.945,390.331,367.04,390.331,362.808z"/>
	<path class="st3" d="M411.102,362.369c0-4.114,3.072-6.44,7.592-6.44s7.592,2.344,7.592,6.44c0,4.114-3.072,6.576-7.592,6.576
		S411.102,366.483,411.102,362.369z M422.234,362.369c0-2.428-1.358-3.861-3.54-3.861s-3.518,1.434-3.518,3.861
		c0,2.445,1.336,3.979,3.518,3.979S422.234,364.814,422.234,362.369z"/>
</g>
<path class="st3" d="M368.691,277.808c0,0,0.319,10.667,0.793,12.424c0.004,0.018,0.319,3.177,4.556,4.489
	c0,0,1.686,0.573,2.461,0.675c0,0,1.055,0.13,3.976,2.665c0.01,0.008,3.351,3.307,4.73,0.946c0.006-0.01,1.07-1.048,1.493-8.239
	c-0.002,0.023,1.376-12.797,0.93-15.203c0,0.014,1.456-7.337-1.233-8.964c0.014,0.009-2.418-0.964-5.978-4.213
	c-0.001,0.041-3.961-4.804-8.933-1.057c-0.014,0.009-4.079,2.177-3.73,4.381c0.003,0.05,1.204,6.832,0.819,8.324
	C368.577,274.101,368.687,277.708,368.691,277.808z"/>
<g>
	<path class="st3" d="M346.086,264.849h-40.472c-2.64,0-4.783,2.143-4.783,4.783v22.836c0,2.64,2.143,4.783,4.783,4.783h15.071v3.28
		h-14.643c-0.08-0.006-0.166-0.006-0.246-0.006c-0.08,0-0.166,0-0.246,0.006c-2.532,0.131-4.543,2.217-4.543,4.783
		c0,2.64,2.143,4.783,4.789,4.783h14.889v56.513c0,2.64,2.143,4.783,4.783,4.783c2.646,0,4.783-2.143,4.783-4.783v-56.513h15.639
		c2.64,0,4.783-2.143,4.783-4.783c0-2.566-2.012-4.652-4.537-4.783c-0.08-0.006-0.166-0.006-0.246-0.006
		c-0.08,0-0.166,0-0.246,0.006h-15.393v-3.28h15.834c2.64,0,4.783-2.143,4.783-4.783v-22.836
		C350.869,266.992,348.726,264.849,346.086,264.849z M341.215,276.267h-10.963v-4.178h10.963V276.267z M320.685,272.088v4.178
		h-10.283v-4.178H320.685z M310.402,290.007v-4.174h10.283v4.174H310.402z M330.252,290.007v-4.174h10.963v4.174H330.252z"/>
	<path class="st3" d="M260.292,320.196c-0.126-2.526-2.212-4.537-4.772-4.537c-2.554,0-4.64,2.012-4.772,4.537
		c-0.006,0.08-0.006,0.166-0.006,0.246v0.006c-0.251,14.075-2.337,27.699-6.018,40.654c-0.029,0.086-0.051,0.172-0.08,0.263
		c-0.092,0.377-0.143,0.777-0.143,1.183c0,2.64,2.143,4.783,4.783,4.783c2.12,0,3.909-1.372,4.537-3.275
		c0.011-0.029,0.023-0.057,0.029-0.086c0.029-0.114,0.063-0.229,0.092-0.343c3.857-13.612,6.046-27.922,6.332-42.695
		c0-0.034,0.006-0.063,0.006-0.091c0.011-0.131,0.017-0.263,0.017-0.4c0-0.074,0-0.149-0.006-0.223V320.196z"/>
	<path class="st3" d="M244.988,274.873c1.623,5.858,2.926,11.847,3.875,17.956c0.006,0.011,0.006,0.017,0.006,0.029
		c0.017,0.246,0.057,0.48,0.114,0.714c0,0.011,0,0.017,0.006,0.029c0.509,2.092,2.4,3.646,4.646,3.646
		c2.646,0,4.783-2.143,4.783-4.783c0-0.16-0.006-0.314-0.023-0.469c0-0.023-0.006-0.046-0.006-0.074
		c-0.017-0.143-0.04-0.28-0.069-0.423c-1.017-6.606-2.423-13.087-4.189-19.419c-0.023-0.097-0.051-0.2-0.08-0.297
		c0-0.006,0-0.011-0.006-0.017c-0.606-1.943-2.423-3.36-4.572-3.36c-2.646,0-4.795,2.143-4.795,4.783
		c0,0.297,0.029,0.589,0.08,0.874C244.811,274.341,244.886,274.61,244.988,274.873z"/>
	<path class="st3" d="M294.3,361.102c-3.68-12.955-5.766-26.579-6.018-40.654v-0.006c0-0.08,0-0.166-0.006-0.246
		c-0.131-2.526-2.217-4.537-4.772-4.537c-2.56,0-4.646,2.012-4.772,4.537v0.023c-0.006,0.074-0.006,0.149-0.006,0.223
		c0,0.137,0.006,0.269,0.017,0.4c0,0.029,0.006,0.057,0.006,0.091c0.286,14.773,2.474,29.082,6.332,42.695
		c0.029,0.114,0.063,0.229,0.092,0.343c0.006,0.029,0.017,0.057,0.029,0.086c0.629,1.903,2.417,3.275,4.537,3.275
		c2.64,0,4.783-2.143,4.783-4.783c0-0.406-0.051-0.806-0.143-1.183C294.352,361.274,294.329,361.188,294.3,361.102z"/>
	<path class="st3" d="M285.391,297.246c2.246,0,4.137-1.554,4.646-3.646c0.006-0.011,0.006-0.017,0.006-0.029
		c0.057-0.234,0.097-0.469,0.114-0.714c0-0.011,0-0.017,0.006-0.029c0.949-6.109,2.252-12.098,3.875-17.956
		c0.103-0.263,0.177-0.532,0.229-0.812c0.051-0.286,0.08-0.577,0.08-0.874c0-2.64-2.149-4.783-4.795-4.783
		c-2.149,0-3.966,1.417-4.572,3.36c-0.006,0.006-0.006,0.011-0.006,0.017c-0.028,0.097-0.057,0.2-0.08,0.297
		c-1.766,6.332-3.172,12.812-4.189,19.419c-0.029,0.143-0.051,0.28-0.069,0.423c0,0.029-0.006,0.051-0.006,0.074
		c-0.017,0.154-0.023,0.309-0.023,0.469C280.608,295.103,282.745,297.246,285.391,297.246z"/>
	<path class="st3" d="M117.822,313.567H82.608v-12.664h24.385c0.411,0,0.817-0.051,1.2-0.149c0.149-0.046,0.297-0.091,0.44-0.143
		c0.006,0.006,0.006,0.006,0.006,0c0.291-0.103,0.571-0.24,0.834-0.4c0.657-0.394,1.217-0.954,1.612-1.611
		c0.16-0.263,0.297-0.543,0.4-0.834v-0.006c0.051-0.143,0.097-0.292,0.143-0.44c0.097-0.383,0.149-0.789,0.149-1.2v-0.006
		c0-0.434-0.057-0.857-0.166-1.257c-0.017-0.057-0.034-0.109-0.051-0.166c-0.234-0.743-0.646-1.412-1.183-1.954
		c-0.109-0.109-0.223-0.211-0.337-0.309c-0.006,0-0.006,0-0.006-0.006c-0.177-0.143-0.36-0.274-0.554-0.394
		c-0.269-0.16-0.549-0.291-0.84-0.4c-0.069-0.029-0.143-0.051-0.223-0.074c-0.074-0.023-0.149-0.046-0.223-0.069
		c-0.006,0-0.011-0.006-0.011-0.006c-0.177-0.04-0.349-0.074-0.537-0.097c-0.017-0.006-0.029-0.006-0.046-0.006
		c-0.006,0-0.011-0.006-0.017-0.006c-0.114-0.011-0.229-0.029-0.349-0.034H82.608v-21.704c0-0.223-0.017-0.434-0.046-0.651
		c-0.08-0.583-0.269-1.137-0.537-1.629c-0.217-0.406-0.497-0.777-0.823-1.103c-0.726-0.726-1.674-1.212-2.737-1.354
		c-0.211-0.029-0.429-0.046-0.646-0.046c-0.217,0-0.434,0.017-0.646,0.046c-2.337,0.314-4.137,2.314-4.137,4.737v21.704H53.663
		c0.634-5.812,2.412-11.281,5.097-16.173c0.006-0.011,0.017-0.023,0.023-0.034c0.052-0.103,0.103-0.2,0.16-0.297
		c0.343-0.657,0.531-1.4,0.531-2.189c0-2.64-2.137-4.783-4.783-4.783c-1.617,0-3.052,0.806-3.92,2.04
		c-0.177,0.257-0.332,0.531-0.457,0.817c-4.074,7.481-6.406,16.047-6.44,25.156c-0.006,0.08-0.006,0.166-0.006,0.246
		c0,0.08,0,0.166,0.006,0.246c0.131,2.526,2.217,4.538,4.777,4.538h5.012h19.373v12.664h-35.22c-2.64,0-4.783,2.143-4.783,4.789
		c0,2.64,2.143,4.783,4.783,4.783h35.22v43.472c0,2.64,2.143,4.783,4.783,4.783c2.646,0,4.789-2.143,4.789-4.783v-43.472h35.214
		c1.651,0,3.109-0.834,3.966-2.109c0.514-0.766,0.817-1.686,0.817-2.675C122.605,315.71,120.462,313.567,117.822,313.567z"/>
	<path class="st3" d="M224.547,301.869h-35.174v-32.237c0-2.64-2.137-4.783-4.783-4.783c-2.64,0-4.783,2.143-4.783,4.783v32.237
		h-35.157c-2.64,0-4.783,2.143-4.783,4.783c0,2.64,2.143,4.783,4.783,4.783h35.157v55.175c0,2.64,2.143,4.783,4.783,4.783
		c2.646,0,4.783-2.143,4.783-4.783v-55.175h35.174c2.537,0,4.606-1.972,4.772-4.457c0.006-0.109,0.011-0.217,0.011-0.326
		c0-0.109-0.006-0.217-0.011-0.326C229.153,303.841,227.084,301.869,224.547,301.869z"/>
	<path class="st3" d="M168.291,315.682c-2.389,0-4.372,1.737-4.738,4.017c-0.006,0.011-0.006,0.023-0.006,0.04
		c-0.04,0.234-0.057,0.48-0.057,0.726v0.091v0.029c-1.029,14.43-6.063,27.756-13.995,38.871c-0.16,0.189-0.309,0.389-0.434,0.6
		c-0.006,0.011-0.011,0.017-0.017,0.029c-0.434,0.72-0.68,1.554-0.68,2.452c0,2.64,2.149,4.783,4.8,4.783
		c1.56,0,2.943-0.737,3.812-1.88c0.074-0.091,0.137-0.183,0.2-0.274c9.018-12.572,14.733-27.676,15.87-44.038v-0.029
		c0.017-0.217,0.034-0.417,0.046-0.634v-0.04c0-0.006,0-0.006,0-0.011C173.063,317.796,170.931,315.682,168.291,315.682z"/>
	<path class="st3" d="M154.09,275.079c0.12,0.274,0.263,0.537,0.429,0.783c0.006,0.006,0.011,0.011,0.011,0.017
		c3,5.549,5.337,11.515,6.898,17.784c0.537,2.063,2.412,3.589,4.64,3.589c2.652,0,4.795-2.143,4.795-4.783
		c0-0.246-0.017-0.491-0.057-0.726c0-0.011,0-0.023-0.006-0.034c-0.04-0.263-0.103-0.52-0.188-0.766c0-0.006,0-0.011-0.006-0.023
		c-1.777-6.978-4.406-13.618-7.772-19.801c-0.006,0-0.006,0-0.006-0.006c-0.069-0.137-0.143-0.269-0.223-0.4c0,0,0,0,0-0.006
		c-0.834-1.383-2.36-2.303-4.103-2.303c-2.646,0-4.8,2.143-4.8,4.783c0,0.657,0.137,1.286,0.377,1.863
		C154.084,275.056,154.084,275.067,154.09,275.079z"/>
	<path class="st3" d="M220.398,360.056c-0.126-0.211-0.274-0.412-0.434-0.6c-7.932-11.115-12.967-24.442-13.995-38.871v-0.029
		v-0.091c0-0.246-0.017-0.492-0.057-0.726c0-0.017,0-0.029-0.006-0.04c-0.366-2.28-2.349-4.017-4.738-4.017
		c-2.64,0-4.772,2.114-4.8,4.732c0,0.006,0,0.006,0,0.011v0.04c0.011,0.217,0.029,0.417,0.046,0.634v0.029
		c1.137,16.361,6.852,31.465,15.87,44.038c0.063,0.091,0.126,0.183,0.2,0.274c0.869,1.143,2.252,1.88,3.812,1.88
		c2.652,0,4.8-2.143,4.8-4.783c0-0.897-0.246-1.732-0.68-2.452C220.409,360.073,220.404,360.068,220.398,360.056z"/>
	<path class="st3" d="M203.391,297.252c2.229,0,4.103-1.526,4.64-3.589c1.56-6.269,3.897-12.235,6.898-17.784
		c0-0.006,0.006-0.011,0.011-0.017c0.166-0.246,0.309-0.509,0.429-0.783c0.006-0.011,0.006-0.023,0.011-0.029
		c0.24-0.577,0.377-1.206,0.377-1.863c0-2.64-2.154-4.783-4.8-4.783c-1.743,0-3.269,0.92-4.103,2.303c0,0.006,0,0.006,0,0.006
		c-0.08,0.131-0.154,0.263-0.223,0.4c0,0.006,0,0.006-0.006,0.006c-3.366,6.183-5.995,12.824-7.772,19.801
		c-0.006,0.011-0.006,0.017-0.006,0.023c-0.086,0.246-0.149,0.503-0.188,0.766c-0.006,0.011-0.006,0.023-0.006,0.034
		c-0.04,0.234-0.057,0.48-0.057,0.726C198.596,295.109,200.739,297.252,203.391,297.252z"/>
	<path class="st3" d="M289.561,310.098c2.64,0,4.783-2.143,4.783-4.783c0-2.566-2.012-4.652-4.537-4.783
		c-0.08-0.006-0.166-0.006-0.246-0.006c-0.08,0-0.166,0-0.246,0.006h-15.393v-30.899c0-2.64-2.137-4.783-4.783-4.783
		c-2.64,0-4.783,2.143-4.783,4.783v30.899h-14.643c-0.08-0.006-0.166-0.006-0.246-0.006c-0.08,0-0.166,0-0.246,0.006
		c-2.532,0.131-4.543,2.217-4.543,4.783c0,2.64,2.143,4.783,4.789,4.783h14.889v56.513c0,2.64,2.143,4.783,4.783,4.783
		c2.646,0,4.783-2.143,4.783-4.783v-56.513H289.561z"/>
	<path class="st3" d="M316.622,320.196c-0.126-2.526-2.212-4.537-4.772-4.537c-2.555,0-4.64,2.012-4.772,4.537
		c-0.006,0.08-0.006,0.166-0.006,0.246v0.006c-0.251,14.075-2.337,27.699-6.018,40.654c-0.029,0.086-0.051,0.172-0.08,0.263
		c-0.092,0.377-0.143,0.777-0.143,1.183c0,2.64,2.143,4.783,4.783,4.783c2.12,0,3.909-1.372,4.537-3.275
		c0.011-0.029,0.023-0.057,0.029-0.086c0.029-0.114,0.063-0.229,0.092-0.343c3.857-13.612,6.046-27.922,6.332-42.695
		c0-0.034,0.006-0.063,0.006-0.091c0.011-0.131,0.017-0.263,0.017-0.4c0-0.074,0-0.149-0.006-0.223V320.196z"/>
	<path class="st3" d="M350.629,361.102c-3.68-12.955-5.766-26.579-6.018-40.654v-0.006c0-0.08,0-0.166-0.006-0.246
		c-0.131-2.526-2.217-4.537-4.772-4.537c-2.56,0-4.646,2.012-4.772,4.537v0.023c-0.006,0.074-0.006,0.149-0.006,0.223
		c0,0.137,0.006,0.269,0.017,0.4c0,0.029,0.006,0.057,0.006,0.091c0.286,14.773,2.474,29.082,6.332,42.695
		c0.029,0.114,0.063,0.229,0.092,0.343c0.006,0.029,0.017,0.057,0.029,0.086c0.629,1.903,2.417,3.275,4.537,3.275
		c2.64,0,4.783-2.143,4.783-4.783c0-0.406-0.051-0.806-0.143-1.183C350.681,361.274,350.658,361.188,350.629,361.102z"/>
</g>
<g>
	<path class="st7" d="M377.677,274.484c-0.01-0.01-0.018-0.017-0.021-0.017C377.662,274.472,377.669,274.478,377.677,274.484z"/>
	<path class="st7" d="M384.547,275.911c0.018-0.018-0.374,0.098-0.41,0.205c0,0.01-0.764,0.047-1.926,0.361
		c-0.001-0.048-0.001-0.095-0.002-0.142c0.301-0.068,0.505-0.109,0.511-0.107c2.297-0.225,2.469-1.318,2.537-1.277
		c-0.33-0.301-0.004-0.845-0.004-0.845s-0.438-0.475-0.451-0.499c-0.233-0.292-0.067-0.703-0.135-0.744
		c-0.746-0.304-1.939,0.468-2.448,0.822c0.004-0.182,0.01-0.357,0.016-0.525c0.594-0.3,1.304-0.627,1.902-0.807
		c0.018,0,0.419-0.232,0.241-0.704c0.027-0.009,0.241-0.285,0.49-0.187c0.018,0,0.098-0.383-0.053-0.446
		c0,0.009-1.266-0.892-2.274-0.152c0.001,0.001-0.052,0.027-0.144,0.069c0.042-0.61,0.178-1.6,0.611-2.026c0.013,0,0-0.354,0-0.354
		s-0.828-0.067-0.914-0.106c0,0.01-0.928-0.163-0.915,0.116c0.013,0.009-0.21,0.124,0,0.411c0.001,0.002,0.003,0.005,0.006,0.008
		c0.138,0.18,0.199,0.389,0.179,0.598l-0.173,1.892c-0.481,0.213-0.905,0.4-0.905,0.4s-0.383,0.285-1.088-0.143
		c-0.009-0.018-0.339,0.16-0.339,0.16s-0.169,0.678-0.036,0.794c0.018,0.009,0.464,0.25,0.321,0.829
		c0.009-0.009-0.036,0.263,0.482,0.687c0,0,0.516,0.227,1.348-0.357l-0.053,0.578c-0.431,0.251-0.925,0.545-1.347,0.799
		c-0.074-0.061-0.173-0.127-0.305-0.195c0,0.035-1.349-0.369-1.591-0.541c0.042,0.044,0.122,0.162,0.01,0.184
		c0.008,0.014-0.136,0.059-0.279,0.085c0.84-0.977,1.752-2.434,0.915-3.531c0.08,0.027-0.918-0.955-1.64-0.058
		c0,0,0.833,0.857-0.287,2.543c0.02-0.47,0.05-0.858,0.091-1.13c0-0.024-0.009-1.597,0.455-2.127c0.009,0,0-0.297,0-0.297
		s-0.597-0.056-0.66-0.088c0,0.008-0.669-0.136-0.66,0.096c0.009,0.008-0.152,0.104,0,0.345c0.001,0.001,0.003,0.004,0.005,0.007
		c0.1,0.151,0.143,0.326,0.129,0.501l-0.241,3.056c-0.458-1.975-1.992-2.335-1.992-2.335c-1.074,0.263-0.171,2.95-0.151,2.969
		c0.254,0.573,0.801,1.061,1.139,1.323l-0.01,0.012c-1.408,0.511-3.122,1.05-3.745,0.912c0.041,0.036-0.757-0.189-0.78-0.39
		c0,0-0.299,0.084-0.223,0.269c0.015-0.002-0.092,0.179-0.261,0.159c0.008,0.013-0.123,0.027,0.046,0.14
		c0,0,1.586,2.604,4.287,1.962c0,0.013,0.028-0.273,0.281-0.704c0.075,0.025,0.123,0.08,0.12,0.181
		c-0.009,0.032-0.866,2.066-3.065,3.446c0.03-0.018,0.267,0.551,1.613-0.117c0.305,0.667,0.941,1.884,1.868,2.997
		c0.027,0,0.227,0.325,0.16,0.482c-0.013,0.024-0.187,0.072-0.615-0.241c0,0.012,0.227,0.373,1.337,0.999
		c0.027,0.012,0.187,0.096,0.722-0.072c0,0,0.267-0.277,0.374-0.891c0,0.006-0.107-2.288-0.184-4.953
		c1.896,1.705,2.335,0.956,2.367,0.982c-1.504-1.28-2.184-2.822-2.425-3.502c-0.007-0.42-0.012-0.834-0.015-1.235
		c0.58-0.296,1.293-0.581,2.168-0.831c0,0.014,0.073,0.059,0.193,0.102c-0.087,0.053-0.136,0.083-0.136,0.083
		c-0.676,0.41,0.193,1.545,0.167,1.497c0.508,0.375,1.201-0.318,1.201-0.318c0.196-0.089,0.462-0.181,0.753-0.27l-0.024,0.264
		c-0.682,0.273-1.423,0.633-2.184,1.107c0-0.008-1.497,0.853-1.814-0.057c0.013,0.027-0.067,0.642,0.642,1.297
		c0,0,1.662,0.883,2.429,0.829c0.028-0.012,0.08-0.077,0.207-0.081c-0.023,0.028-0.045,0.055-0.068,0.083
		c-0.009,0.007-0.481,1.808-0.455,2.69c0,0.018,0.366,0.722,0.597,0.499c0.018,0,0.187-0.232,0.187-0.232s0.214,0.437,0.285,0.481
		c0.027,0.009,0.116-0.348,0.116-0.348s-0.437-0.272-0.134-1.036c0,0.02,1.489-0.363,1.489-0.363s-0.009,0.669,0.178,1.427
		c0.018,0.018-0.169,0.291-0.562,0.434c0,0-2.818,1.001-3.798,1.572c0.018,0.001,1.409-0.232,2.211,0
		c0.018,0.018-0.089,0.045-0.089,0.045s0.267,0.018,0.357,0.134c0.009-0.009,0.116-0.027,0.116,0.134
		c0.006-0.011-0.171,0.077-0.319,0.113c0.165,0.022,0.375,0.063,0.364,0.136c0,0-0.125,0.018-0.178,0
		c0.036,0.009,0.945,0.321,1.106,0.508c0.027,0.027,0.276,0.33,0.276,0.33s0.089,0.285,0.464,0.25c0.018,0,0.49,0.003,0.49,0.003
		s0.116-0.226,0.357-0.11c0.018,0.009,0.401,0.036,0.517-0.089c0.009,0.018,1.159-0.954,1.306-1.413
		c0.013-0.018,0.227-0.312,0.067-0.646c0.013,0.027,0.059-0.134,0.059-0.134s-1.165-2.256-1.165-4.021
		c0.036,0.018-0.036-0.731-0.036-0.731s0.196-0.571,0.196-0.731c-0.018,0.036,0.089-0.25-0.071-0.303c-0.053,0-0.125,0-0.125,0
		s0.098-0.383-1.248-0.726c0.005,0.003-0.031,0.002-0.061,0.001c0.047-0.023,0.093-0.043,0.137-0.059
		c-0.018,0.017,1.679-0.678,2.373-0.589c0.016,0.018,0.373-0.008,0.373-0.008s0.285,0.061,0.392,0.097
		c0.018,0,0.624-0.339,0.624-0.339S386.562,276.963,384.547,275.911z M374.481,283.159c0.012,0-0.616,0.049-1.605-1.315
		c0.413-0.215,0.925-0.542,1.558-1.028c-0.006,0.011,0.276-0.282,0.607-0.737l-0.211,2.677
		C374.831,282.756,374.748,283.086,374.481,283.159z M377.174,275.015c0.046-0.05,0.094-0.103,0.141-0.156
		c0.031-0.006,0.067-0.019,0.111-0.044C377.426,274.821,377.331,274.917,377.174,275.015z M382.104,280.903
		c0,0-0.678-0.266-1.195,0.09c0,0,0.481-0.71,1.284-0.658C382.211,280.387,382.104,280.903,382.104,280.903z M382.264,279.93
		c0,0-0.232-0.211-0.642-0.206c0,0,0.339-0.727,0.785-0.656L382.264,279.93z"/>
	<path class="st7" d="M380.077,285.717c-0.098-0.013-0.179-0.02-0.189-0.022C379.911,285.741,379.989,285.738,380.077,285.717z"/>
</g>
</svg>
